<svg xmlns="http://www.w3.org/2000/svg" version="1.1" viewBox="200 910 670 130" width="375" height="93" preserveAspectRatio="xMidYMid meet">
  <path
    d="M0 0 C6.85359422 3.50887608 13.64356752 7.34272158 18.609375 13.3359375 C18.609375 13.9959375 18.609375 14.6559375 18.609375 15.3359375 C16.04623001 15.41725937 13.48569082 15.47657925 10.921875 15.5234375 C10.20064453 15.54857422 9.47941406 15.57371094 8.73632812 15.59960938 C4.04276607 15.66390475 1.42997768 14.99601582 -2.390625 12.3359375 C-13.61715131 7.90009052 -26.23421487 7.63850166 -37.390625 12.3359375 C-48.03131671 17.04136901 -54.21304979 24.03378026 -59.26171875 34.40625 C-63.09560005 44.35576895 -63.06857476 57.78380551 -58.78051758 67.61206055 C-57.31008861 70.49377071 -55.61964116 73.02629764 -53.73828125 75.65625 C-53.11058838 76.53812988 -52.48289551 77.42000977 -51.83618164 78.32861328 C-51.35914795 78.99103027 -50.88211426 79.65344727 -50.390625 80.3359375 C-50.39848022 78.66760864 -50.39848022 78.66760864 -50.40649414 76.96557617 C-50.42493598 72.74032432 -50.43619625 68.51507581 -50.44555664 64.28979492 C-50.45050916 62.47956744 -50.45727299 60.66934377 -50.46606445 58.85913086 C-50.47853798 56.21987957 -50.48394371 53.58068217 -50.48828125 50.94140625 C-50.49344254 50.1645195 -50.49860382 49.38763275 -50.50392151 48.58720398 C-50.50478382 39.46080982 -49.87265698 30.4945452 -49.390625 21.3359375 C-26.290625 21.3359375 -3.190625 21.3359375 20.609375 21.3359375 C20.609375 30.3359375 20.609375 30.3359375 19.609375 32.3359375 C0.469375 32.3359375 -18.670625 32.3359375 -38.390625 32.3359375 C-38.390625 36.6259375 -38.390625 40.9159375 -38.390625 45.3359375 C-24.530625 45.3359375 -10.670625 45.3359375 3.609375 45.3359375 C3.609375 48.9659375 3.609375 52.5959375 3.609375 56.3359375 C-2.330625 56.8309375 -2.330625 56.8309375 -8.390625 57.3359375 C-7.41222656 59.8728125 -7.41222656 59.8728125 -6.4140625 62.4609375 C-4.15511352 68.32097794 -1.90519083 74.18445283 0.34375 80.04833984 C1.4231982 82.85232315 2.51302644 85.65181687 3.609375 88.44921875 C4.15123149 89.84888486 4.69291594 91.2486176 5.234375 92.6484375 C5.93433594 94.43701172 5.93433594 94.43701172 6.6484375 96.26171875 C7.609375 99.3359375 7.609375 99.3359375 7.609375 104.3359375 C3.319375 104.3359375 -0.970625 104.3359375 -5.390625 104.3359375 C-9.12728514 96.63615298 -12.02793373 88.86027013 -14.78759766 80.76831055 C-16.78256243 74.95395886 -18.98192776 69.33756267 -21.54296875 63.74609375 C-22.390625 61.3359375 -22.390625 61.3359375 -22.390625 56.3359375 C-30.310625 56.8309375 -30.310625 56.8309375 -38.390625 57.3359375 C-38.37491455 59.12994995 -38.37491455 59.12994995 -38.35888672 60.96020508 C-38.32271095 65.39376843 -38.29973334 69.82731871 -38.28076172 74.26098633 C-38.27069861 76.18060499 -38.25704684 78.10020831 -38.23974609 80.01977539 C-38.21551136 82.77754502 -38.20414508 85.53511214 -38.1953125 88.29296875 C-38.18498993 89.15243607 -38.17466736 90.01190338 -38.16403198 90.89741516 C-38.16380539 92.09832039 -38.16380539 92.09832039 -38.16357422 93.32348633 C-38.159133 94.0274202 -38.15469177 94.73135406 -38.15011597 95.45661926 C-38.390625 97.3359375 -38.390625 97.3359375 -40.390625 100.3359375 C-48.84029704 96.95606869 -58.60476263 91.79158465 -62.890625 83.3984375 C-63.055625 82.7178125 -63.220625 82.0371875 -63.390625 81.3359375 C-64.050625 81.3359375 -64.710625 81.3359375 -65.390625 81.3359375 C-73.40328971 69.21842406 -76.24974587 54.73649689 -73.91796875 40.4375 C-70.39706372 25.72138196 -61.98842668 13.88319034 -49.9296875 4.87109375 C-35.72499877 -3.71727959 -15.60134307 -6.35777275 0 0 Z "
    fill="#FDFEFD"
    transform="translate(288.390625,913.6640625)"
  />
  <path
    d="M0 0 C14.33333333 0 28.66666667 0 43 0 C44.39535431 -0.00927782 45.79069988 -0.01994028 47.18603516 -0.03173828 C51.69365909 -0.06748165 56.20126121 -0.09076276 60.70898438 -0.10986328 C62.65659727 -0.11997313 64.60419481 -0.13365821 66.55175781 -0.15087891 C69.3600638 -0.17504759 72.16817179 -0.18645958 74.9765625 -0.1953125 C75.85051666 -0.20563507 76.72447083 -0.21595764 77.62490845 -0.22659302 C79.75128082 -0.22699066 81.87717239 -0.12272968 84 0 C86 2 86 2 86.1953125 4.8203125 C86.17210937 5.91085937 86.14890625 7.00140625 86.125 8.125 C86.10695313 9.22070312 86.08890625 10.31640625 86.0703125 11.4453125 C86.04710937 12.28835938 86.02390625 13.13140625 86 14 C85.01 14.33 84.02 14.66 83 15 C83 15.66 83 16.32 83 17 C75.41 17 67.82 17 60 17 C60 18.65 60 20.3 60 22 C60.71285156 21.98839844 61.42570312 21.97679687 62.16015625 21.96484375 C67.55286599 21.9140376 72.69931662 21.96290977 78 23 C79 24 79 24 79.09765625 26.72265625 C79.08605469 27.82480469 79.07445312 28.92695312 79.0625 30.0625 C79.05347656 31.16722656 79.04445313 32.27195312 79.03515625 33.41015625 C79.02355469 34.26480469 79.01195312 35.11945312 79 36 C72.51656189 38.63096039 66.97669157 39.39325819 60 39 C60 40.65 60 42.3 60 44 C68.25 44.33 76.5 44.66 85 45 C86.22691067 47.45382134 86.20175931 49.19984103 86.25 51.9375 C86.27578125 52.81277344 86.3015625 53.68804688 86.328125 54.58984375 C86 57 86 57 84.98120117 58.63012695 C81.88025949 60.77422846 78.60749492 60.38722062 74.97265625 60.328125 C74.18733017 60.32625183 73.40200409 60.32437866 72.59288025 60.32244873 C70.93272657 60.31572959 69.27258869 60.30181772 67.61254883 60.28125 C65.07553329 60.25015972 62.53914011 60.24028402 60.00195312 60.234375 C58.38801329 60.22520176 56.77407975 60.21482497 55.16015625 60.203125 C54.4027565 60.19887512 53.64535675 60.19462524 52.86500549 60.19024658 C49.44718195 60.14404702 46.2677273 60.06871763 43 59 C42.03792883 54.07666069 41.79085787 49.31599597 41.68359375 44.3203125 C41.66281265 43.50754852 41.64203156 42.69478455 41.62062073 41.85739136 C41.55562421 39.28000743 41.49647407 36.70252806 41.4375 34.125 C41.39426723 32.36978209 41.35065148 30.61457357 41.30664062 28.859375 C41.19999451 24.57301262 41.09858886 20.28655496 41 16 C39.35425434 15.97311849 37.70838587 15.95365877 36.0625 15.9375 C35.14597656 15.92589844 34.22945313 15.91429687 33.28515625 15.90234375 C31.03406673 15.74050951 31.03406673 15.74050951 30 17 C27.64686445 17.07271741 25.29166332 17.08370868 22.9375 17.0625 C21.64714844 17.05347656 20.35679687 17.04445313 19.02734375 17.03515625 C18.02832031 17.02355469 17.02929688 17.01195312 16 17 C16.33 18.65 16.66 20.3 17 22 C17.56847656 21.98839844 18.13695312 21.97679687 18.72265625 21.96484375 C23.60234647 21.90781899 28.19878078 22.0997714 33 23 C34 24 34 24 34.09765625 26.94140625 C34.08605469 28.13636719 34.07445312 29.33132813 34.0625 30.5625 C34.05347656 31.76003906 34.04445313 32.95757813 34.03515625 34.19140625 C34.02355469 35.11824219 34.01195312 36.04507813 34 37 C32.50060922 37.17206124 31.00043567 37.33730216 29.5 37.5 C28.6646875 37.5928125 27.829375 37.685625 26.96875 37.78125 C23.32166027 38.04998293 19.65697702 38 16 38 C15.67 44.93 15.34 51.86 15 59 C12.9375 59.185625 10.875 59.37125 8.75 59.5625 C7.00976562 59.71912109 7.00976562 59.71912109 5.234375 59.87890625 C2 60 2 60 -2 59 C-2 40.19 -2 21.38 -2 2 C-1.34 2 -0.68 2 0 2 C0 1.34 0 0.68 0 0 Z "
    fill="#FAFCFD"
    transform="translate(349,933)"
  />
  <path
    d="M0 0 C1.64162109 -0.00386719 1.64162109 -0.00386719 3.31640625 -0.0078125 C6.14358913 0.11249315 8.6885726 0.48000028 11.4375 1.125 C11.4375 1.785 11.4375 2.445 11.4375 3.125 C12.695625 3.310625 13.95375 3.49625 15.25 3.6875 C15.95769531 3.79191406 16.66539062 3.89632812 17.39453125 4.00390625 C19.6400342 4.26404799 19.6400342 4.26404799 22.4375 3.125 C22.4375 2.465 22.4375 1.805 22.4375 1.125 C28.79122519 1.074348 35.14489844 1.03928678 41.4987793 1.01513672 C43.66090847 1.00507049 45.823024 0.99141646 47.98510742 0.97412109 C51.09036625 0.94990022 54.1954453 0.93852319 57.30078125 0.9296875 C58.26961746 0.91936493 59.23845367 0.90904236 60.23664856 0.89840698 C61.1373558 0.89825592 62.03806305 0.89810486 62.96606445 0.89794922 C64.15520195 0.89128738 64.15520195 0.89128738 65.36836243 0.88449097 C67.4375 1.125 67.4375 1.125 70.4375 3.125 C70.73046875 6.1640625 70.73046875 6.1640625 70.625 9.75 C70.58439453 11.53277344 70.58439453 11.53277344 70.54296875 13.3515625 C70.50816406 14.26679687 70.47335937 15.18203125 70.4375 16.125 C68.68771843 16.29394443 66.93766388 16.46006309 65.1875 16.625 C64.21296875 16.7178125 63.2384375 16.810625 62.234375 16.90625 C59.97447847 17.08300168 57.70429807 17.125 55.4375 17.125 C55.39991577 18.91901245 55.39991577 18.91901245 55.36157227 20.74926758 C55.26746148 25.18297195 55.16724964 29.616521 55.06518555 34.05004883 C55.0218506 35.96960825 54.98017448 37.88920585 54.94018555 39.80883789 C54.88244822 42.56668614 54.81876365 45.32434241 54.75390625 48.08203125 C54.73719376 48.94149857 54.72048126 49.80096588 54.70326233 50.68647766 C54.68331711 51.48708115 54.66337189 52.28768463 54.64282227 53.11254883 C54.61950584 54.16844963 54.61950584 54.16844963 54.59571838 55.24568176 C54.4375 57.125 54.4375 57.125 53.4375 60.125 C51.35564549 60.34762606 49.27189574 60.55257926 47.1875 60.75 C46.02734375 60.86601563 44.8671875 60.98203125 43.671875 61.1015625 C40.4375 61.125 40.4375 61.125 36.4375 59.125 C36.4375 45.595 36.4375 32.065 36.4375 18.125 C33.27504459 17.0708482 30.56801782 16.81224328 27.25 16.5625 C26.16332031 16.47871094 25.07664062 16.39492188 23.95703125 16.30859375 C22.70986328 16.21771484 22.70986328 16.21771484 21.4375 16.125 C20.9425 18.6 20.9425 18.6 20.4375 21.125 C13.5625 20.25 13.5625 20.25 12.4375 19.125 C10.48625695 18.89349659 8.53481247 18.66346103 6.58203125 18.4453125 C3.7328185 18.01974703 1.12859834 17.13416188 -1.5625 16.125 C-1.5625 16.785 -1.5625 17.445 -1.5625 18.125 C-2.635 18.3725 -3.7075 18.62 -4.8125 18.875 C-8.73743806 20.18331269 -10.09528773 20.89782213 -12.5625 24.125 C-13.43544703 29.17605211 -14.07537238 35.50233889 -11.43359375 40.08203125 C-9.94979228 41.54381925 -9.94979228 41.54381925 -7.5625 43.125 C-7.5625 43.785 -7.5625 44.445 -7.5625 45.125 C-1.2925 45.125 4.9775 45.125 11.4375 45.125 C11.4375 44.465 11.4375 43.805 11.4375 43.125 C14.80847383 41.62678941 16.64192119 41.125 20.4375 41.125 C20.68625561 43.39377104 20.91089246 45.66519735 21.125 47.9375 C21.25261719 49.20207031 21.38023437 50.46664062 21.51171875 51.76953125 C21.4375 55.125 21.4375 55.125 20.14453125 57.07421875 C18.4375 58.125 18.4375 58.125 15.4375 58.125 C15.4375 58.785 15.4375 59.445 15.4375 60.125 C10.47168619 62.77063442 5.47280627 62.42038609 0 62.375 C-1.3931543 62.38660156 -1.3931543 62.38660156 -2.81445312 62.3984375 C-7.7946773 62.38425893 -11.89687778 62.08783272 -16.5625 60.125 C-16.5625 59.465 -16.5625 58.805 -16.5625 58.125 C-18.2125 57.795 -19.8625 57.465 -21.5625 57.125 C-21.5625 56.465 -21.5625 55.805 -21.5625 55.125 C-22.8825 54.465 -24.2025 53.805 -25.5625 53.125 C-25.5625 52.465 -25.5625 51.805 -25.5625 51.125 C-26.2225 51.125 -26.8825 51.125 -27.5625 51.125 C-33.77528317 40.80857039 -34.5629613 31.87771012 -32.5625 20.125 C-31.9025 20.125 -31.2425 20.125 -30.5625 20.125 C-30.43875 19.361875 -30.315 18.59875 -30.1875 17.8125 C-29.5625 15.125 -29.5625 15.125 -27.5625 12.125 C-26.9025 12.125 -26.2425 12.125 -25.5625 12.125 C-25.19125 10.9184375 -25.19125 10.9184375 -24.8125 9.6875 C-23.5625 7.125 -23.5625 7.125 -21.4375 6.3125 C-20.81875 6.250625 -20.2 6.18875 -19.5625 6.125 C-19.5625 5.465 -19.5625 4.805 -19.5625 4.125 C-12.96299072 1.08922573 -7.32635806 -0.01729955 0 0 Z "
    fill="#FAFDFD"
    transform="translate(677.5625,931.875)"
  />
  <path
    d="M0 0 C0 0.66 0 1.32 0 2 C0.5775 2.061875 1.155 2.12375 1.75 2.1875 C4.92448483 3.33384174 6.12848575 5.25956842 8 8 C8 8.66 8 9.32 8 10 C8.66 10 9.32 10 10 10 C10.495 12.97 10.495 12.97 11 16 C11.66 16 12.32 16 13 16 C14.72982123 23.60572193 14.35857757 31.35800118 13 39 C12.34 39 11.68 39 11 39 C10.896875 39.7425 10.79375 40.485 10.6875 41.25 C9.95066203 44.1973519 9.05200858 45.78383074 7 48 C6.34 48 5.68 48 5 48 C4.67 48.99 4.34 49.98 4 51 C3.34 51 2.68 51 2 51 C2 51.66 2 52.32 2 53 C-0.97 53.495 -0.97 53.495 -4 54 C-4 54.66 -4 55.32 -4 56 C-8.89658548 57.92778956 -13.12621388 58.38480394 -18.3125 58.375 C-19.06217041 58.37556396 -19.81184082 58.37612793 -20.58422852 58.37670898 C-26.4364806 58.26059035 -30.98175782 57.11606559 -36 54 C-36.66 53.67 -37.32 53.34 -38 53 C-38 52.34 -38 51.68 -38 51 C-38.99 50.67 -39.98 50.34 -41 50 C-41 49.34 -41 48.68 -41 48 C-41.99 47.67 -42.98 47.34 -44 47 C-44 46.34 -44 45.68 -44 45 C-44.66 45 -45.32 45 -46 45 C-50.9180106 37.51607083 -50.72418437 27.07532492 -49.63671875 18.41796875 C-47.91732881 11.88850633 -43.85653993 5.48226699 -38 2 C-37.01 2 -36.02 2 -35 2 C-35 1.34 -35 0.68 -35 0 C-33.35 -0.33 -31.7 -0.66 -30 -1 C-30 -1.66 -30 -2.32 -30 -3 C-19.27091058 -5.38424209 -10.10590939 -4.01369451 0 0 Z M-26 15 C-26 15.66 -26 16.32 -26 17 C-26.99 17.33 -27.98 17.66 -29 18 C-29 18.66 -29 19.32 -29 20 C-29.66 20 -30.32 20 -31 20 C-32.10490118 26.616095 -32.51366532 31.14389113 -29 37 C-25.02527439 41.31541637 -21.63556438 41.73163979 -16 42 C-13.63306283 41.66499921 -13.63306283 41.66499921 -12 41 C-12 40.34 -12 39.68 -12 39 C-11.4225 38.814375 -10.845 38.62875 -10.25 38.4375 C-6.94826951 36.32806107 -5.52151666 33.55538077 -4 30 C-3.12633066 25.74086197 -4.8895715 22.63000099 -6.734375 18.8671875 C-8.29003936 16.57210242 -9.58057092 15.37410084 -12 14 C-14.97838775 13.60104898 -14.97838775 13.60104898 -18.125 13.75 C-19.70667969 13.77320313 -19.70667969 13.77320313 -21.3203125 13.796875 C-23.97100168 13.82786372 -23.97100168 13.82786372 -26 15 Z "
    fill="#FAFDFE"
    transform="translate(797,936)"
  />
  <path
    d="M0 0 C0.98782471 0.0002417 0.98782471 0.0002417 1.99560547 0.00048828 C3.96859378 -0.00382898 5.94142478 -0.04068233 7.9140625 -0.078125 C18.52021599 -0.11049373 26.86589222 1.91385179 35.24609375 8.59765625 C40.92937374 14.33145428 43.15454421 21.248644 43.12890625 29.18359375 C43.08868599 33.65474613 42.65879703 37.95058101 42.00390625 42.37109375 C41.34390625 42.37109375 40.68390625 42.37109375 40.00390625 42.37109375 C39.67390625 44.35109375 39.34390625 46.33109375 39.00390625 48.37109375 C38.34390625 48.37109375 37.68390625 48.37109375 37.00390625 48.37109375 C36.75640625 48.98984375 36.50890625 49.60859375 36.25390625 50.24609375 C34.79761986 52.72178062 33.62578119 53.32234377 31.00390625 54.37109375 C31.00390625 55.03109375 31.00390625 55.69109375 31.00390625 56.37109375 C28.36390625 56.70109375 25.72390625 57.03109375 23.00390625 57.37109375 C23.00390625 58.03109375 23.00390625 58.69109375 23.00390625 59.37109375 C15.99125648 60.29054627 9.13490634 60.52308993 2.06640625 60.49609375 C1.02677734 60.49996094 -0.01285156 60.50382813 -1.08398438 60.5078125 C-2.07462891 60.50652344 -3.06527344 60.50523437 -4.0859375 60.50390625 C-4.98175537 60.50277832 -5.87757324 60.50165039 -6.80053711 60.50048828 C-8.99609375 60.37109375 -8.99609375 60.37109375 -10.99609375 59.37109375 C-12.00724035 56.33765395 -12.12857796 54.27883523 -12.14135742 51.10522461 C-12.14773727 50.03078598 -12.15411713 48.95634735 -12.16069031 47.84934998 C-12.16180313 46.68992386 -12.16291595 45.53049774 -12.1640625 44.3359375 C-12.1673909 43.14633926 -12.1707193 41.95674103 -12.17414856 40.73109436 C-12.17921379 38.21518338 -12.18155701 35.69926568 -12.18139648 33.18334961 C-12.18358689 29.3206894 -12.20175791 25.45831292 -12.22070312 21.59570312 C-12.22363625 19.1549489 -12.22562159 16.71419331 -12.2265625 14.2734375 C-12.23374802 13.11198715 -12.24093353 11.9505368 -12.24833679 10.75389099 C-12.24526016 9.68260452 -12.24218353 8.61131805 -12.23901367 7.50756836 C-12.24043869 6.561754 -12.24186371 5.61593964 -12.24333191 4.64146423 C-11.55982896 -1.63509486 -4.81011686 0.04440108 0 0 Z M8.00390625 17.37109375 C4.04011431 25.50729826 6.08049029 35.69757956 7.00390625 44.37109375 C13.12110622 45.5943649 13.12110622 45.5943649 19.00390625 44.37109375 C23.91408855 39.1720772 25.41794639 34.54975094 25.265625 27.53125 C24.90606835 24.56356599 23.91390262 22.64839712 22.00390625 20.37109375 C21.34390625 20.37109375 20.68390625 20.37109375 20.00390625 20.37109375 C19.67390625 19.38109375 19.34390625 18.39109375 19.00390625 17.37109375 C17.74578125 17.18546875 16.48765625 16.99984375 15.19140625 16.80859375 C14.48371094 16.70417969 13.77601563 16.59976563 13.046875 16.4921875 C10.80137205 16.23204576 10.80137205 16.23204576 8.00390625 17.37109375 Z "
    fill="#FCFDFD"
    transform="translate(492.99609375,932.62890625)"
  />
  <path
    d="M0 0 C4.0018325 -0.04978833 8.00354265 -0.08590164 12.00561523 -0.10986328 C13.36437118 -0.11986243 14.72310594 -0.13346624 16.08178711 -0.15087891 C18.04531296 -0.17539594 20.00900201 -0.18546962 21.97265625 -0.1953125 C23.15093994 -0.20578613 24.32922363 -0.21625977 25.54321289 -0.22705078 C30.74416332 0.11456119 35.44870799 1.45127648 40 4 C40 4.66 40 5.32 40 6 C40.99 6 41.98 6 43 6 C43 6.99 43 7.98 43 9 C43.66 9 44.32 9 45 9 C47.82794984 16.42336834 49.39191233 22.16391145 46.125 29.75 C44.89356464 32.35881861 43.60974797 34.58537805 42 37 C41.34 37 40.68 37 40 37 C40 37.66 40 38.32 40 39 C39.34 39 38.68 39 38 39 C38 39.99 38 40.98 38 42 C38.66 42 39.32 42 40 42 C41.0067004 44.26807204 42.00551766 46.53907754 43 48.8125 C43.28617188 49.45509766 43.57234375 50.09769531 43.8671875 50.75976562 C45.13711041 53.67756469 46 55.78265714 46 59 C39.96496237 60.50875941 34.10261631 59.64186094 28 59 C26.515 54.05 26.515 54.05 25 49 C24.34 49 23.68 49 23 49 C22.34 47.02 21.68 45.04 21 43 C19.35 43 17.7 43 16 43 C15.67 48.28 15.34 53.56 15 59 C12.56625 59.185625 10.1325 59.37125 7.625 59.5625 C6.86010254 59.62381104 6.09520508 59.68512207 5.30712891 59.74829102 C0.22222222 60.11111111 0.22222222 60.11111111 -2 59 C-3.56930416 48.63211808 -3.15760618 37.79742395 -3.13037109 27.33496094 C-3.12493022 24.84303926 -3.13039656 22.35129182 -3.13671875 19.859375 C-3.13605915 18.25781211 -3.13478045 16.65624932 -3.1328125 15.0546875 C-3.13483673 14.31821991 -3.13686096 13.58175232 -3.13894653 12.82296753 C-3.12194242 9.09015779 -2.89385048 5.62954777 -2 2 C-1.34 2 -0.68 2 0 2 C0 1.34 0 0.68 0 0 Z M16 17 C14.95785309 21.61507774 14.95785309 21.61507774 16 26 C21.33374501 27.13309852 21.33374501 27.13309852 26.5 26.0625 C26.995 25.711875 27.49 25.36125 28 25 C28.04241723 22.66705225 28.04092937 20.33297433 28 18 C26.94021067 16.71387324 26.94021067 16.71387324 24.49609375 16.90234375 C23.48675781 16.91394531 22.47742188 16.92554688 21.4375 16.9375 C20.42558594 16.94652344 19.41367187 16.95554687 18.37109375 16.96484375 C17.58863281 16.97644531 16.80617188 16.98804688 16 17 Z "
    fill="#FBFDFE"
    transform="translate(815,933)"
  />
  <path
    d="M0 0 C3.02736052 -0.2914599 5.84686756 -0.39577171 8.875 -0.36328125 C9.75526855 -0.36377975 10.63553711 -0.36427826 11.54248047 -0.36479187 C13.40529638 -0.36244932 15.26811532 -0.35271012 17.13085938 -0.33618164 C19.98856797 -0.31259436 22.84534387 -0.31561848 25.703125 -0.32226562 C27.51042225 -0.31668891 29.31771556 -0.30957907 31.125 -0.30078125 C31.98335449 -0.30169266 32.84170898 -0.30260406 33.72607422 -0.30354309 C39.76898192 -0.23101808 39.76898192 -0.23101808 42 2 C42.30078125 4.75 42.30078125 4.75 42.3125 8 C42.32925781 9.0725 42.34601563 10.145 42.36328125 11.25 C42.24339844 12.1575 42.12351562 13.065 42 14 C36.83541525 17.4430565 31.73943138 17.13280841 25.6875 17.0625 C24.94693359 17.05798828 24.20636719 17.05347656 23.44335938 17.04882812 C21.62887101 17.03712175 19.81442466 17.01918898 18 17 C18 18.65 18 20.3 18 22 C18.64066406 21.97679687 19.28132813 21.95359375 19.94140625 21.9296875 C25.40987096 21.81559137 29.83098277 22.20208096 35 24 C35 28.29 35 32.58 35 37 C29.78579522 38.73806826 27.23536626 39.09518848 22 39 C20.32442621 39.28520405 18.65182755 39.59955696 17 40 C17 41.32 17 42.64 17 44 C18.08269165 44.03758423 18.08269165 44.03758423 19.18725586 44.07592773 C22.437535 44.19151302 25.68749688 44.31440774 28.9375 44.4375 C30.07380859 44.47681641 31.21011719 44.51613281 32.38085938 44.55664062 C33.46044922 44.59853516 34.54003906 44.64042969 35.65234375 44.68359375 C36.65257568 44.72025146 37.65280762 44.75690918 38.68334961 44.79467773 C41 45 41 45 42 46 C42.09879565 47.810285 42.12971514 49.62452727 42.125 51.4375 C42.12886719 52.92056641 42.12886719 52.92056641 42.1328125 54.43359375 C42 57 42 57 41 59 C37.22009827 60.25996724 33.65845675 60.18178062 29.71875 60.203125 C28.5039093 60.21167511 28.5039093 60.21167511 27.26452637 60.22039795 C25.55315453 60.22983733 23.84176461 60.23637771 22.13037109 60.24023438 C19.50977118 60.24996372 16.88994792 60.28100579 14.26953125 60.3125 C12.60677549 60.31902799 10.94401413 60.32427926 9.28125 60.328125 C8.49681519 60.3404718 7.71238037 60.3528186 6.9041748 60.36553955 C1.49084344 60.34331097 1.49084344 60.34331097 -0.70732117 58.80584717 C-2.45855404 56.35940893 -2.37431282 54.74582846 -2.37231445 51.75 C-2.37854324 50.67878906 -2.38477203 49.60757813 -2.39118958 48.50390625 C-2.38197983 47.34761719 -2.37277008 46.19132813 -2.36328125 45 C-2.36402901 43.21916016 -2.36402901 43.21916016 -2.36479187 41.40234375 C-2.36244991 38.89060799 -2.35271432 36.37886994 -2.33618164 33.8671875 C-2.31259438 30.01541225 -2.31561945 26.16432907 -2.32226562 22.3125 C-2.31668889 19.87499586 -2.30957904 17.43749464 -2.30078125 15 C-2.30169266 13.84371094 -2.30260406 12.68742188 -2.30354309 11.49609375 C-2.29401108 10.42488281 -2.28447906 9.35367188 -2.2746582 8.25 C-2.27005081 7.30640625 -2.26544342 6.3628125 -2.26069641 5.390625 C-2 3 -2 3 0 0 Z "
    fill="#FAFCFD"
    transform="translate(438,933)"
  />
  <path
    d="M0 0 C5.65998046 -0.04934926 11.31983636 -0.08569529 16.97998047 -0.10986328 C18.90643494 -0.11993582 20.83287408 -0.13359443 22.75927734 -0.15087891 C25.52445252 -0.17507241 28.289426 -0.18647036 31.0546875 -0.1953125 C31.9193161 -0.20563507 32.7839447 -0.21595764 33.67477417 -0.22659302 C35.78453521 -0.22699106 37.89380718 -0.12265243 40 0 C43.05500197 3.05500197 42.97710549 5.33605916 43.125 9.625 C43 13 43 13 42 15 C33.92275512 17.54080324 25.36371547 17.21977647 17 17 C17 18.65 17 20.3 17 22 C17.71285156 21.97679687 18.42570313 21.95359375 19.16015625 21.9296875 C24.88360394 21.82184326 29.59838814 22.07942689 35 24 C35 28.29 35 32.58 35 37 C29.39 37 23.78 37 18 37 C17.67 39.31 17.34 41.62 17 44 C25.25 44.33 33.5 44.66 42 45 C43.125 54 43.125 54 42 59 C37.63945386 60.07453076 33.38892531 60.14512935 28.92578125 60.1328125 C27.77821602 60.13424759 27.77821602 60.13424759 26.60746765 60.13571167 C24.99799517 60.13638967 23.3885199 60.13456199 21.77905273 60.13037109 C19.31032226 60.12499526 16.84177189 60.13034025 14.37304688 60.13671875 C12.80729126 60.13605833 11.24153577 60.13477793 9.67578125 60.1328125 C8.93620682 60.13483673 8.19663239 60.13686096 7.43464661 60.13894653 C2.22995283 60.11497642 2.22995283 60.11497642 0 59 C-2.07914758 52.54227754 -2.29783838 45.8066544 -2.265625 39.08203125 C-2.26753845 38.18054855 -2.2694519 37.27906586 -2.27142334 36.3502655 C-2.27277335 34.46210447 -2.26916056 32.57393377 -2.26074219 30.68579102 C-2.24998764 27.80919503 -2.26069736 24.93321805 -2.2734375 22.05664062 C-2.27211643 20.21093614 -2.26955513 18.36523203 -2.265625 16.51953125 C-2.26967346 15.66833206 -2.27372192 14.81713287 -2.27789307 13.94013977 C-2.23869668 8.91608288 -1.61286862 4.76452923 0 0 Z "
    fill="#FBFDFD"
    transform="translate(602,933)"
  />
  <path
    d="M0 0 C1.27617188 0.02320313 2.55234375 0.04640625 3.8671875 0.0703125 C5.78917969 0.09738281 5.78917969 0.09738281 7.75 0.125 C9.23113281 0.15980469 9.23113281 0.15980469 10.7421875 0.1953125 C10.7421875 0.8553125 10.7421875 1.5153125 10.7421875 2.1953125 C11.4021875 2.1953125 12.0621875 2.1953125 12.7421875 2.1953125 C12.7421875 3.1853125 12.7421875 4.1753125 12.7421875 5.1953125 C13.4021875 5.1953125 14.0621875 5.1953125 14.7421875 5.1953125 C15.07992187 6.23171875 15.41765625 7.268125 15.765625 8.3359375 C16.21598487 9.7057821 16.66651464 11.07557084 17.1171875 12.4453125 C17.44976563 13.46818359 17.44976563 13.46818359 17.7890625 14.51171875 C18.6905052 17.24255988 19.57540423 19.87517817 20.90625 22.4296875 C21.7421875 24.1953125 21.7421875 24.1953125 21.7421875 28.1953125 C22.4021875 28.1953125 23.0621875 28.1953125 23.7421875 28.1953125 C24.4021875 29.5153125 25.0621875 30.8353125 25.7421875 32.1953125 C26.0721875 30.8753125 26.4021875 29.5553125 26.7421875 28.1953125 C27.4021875 28.1953125 28.0621875 28.1953125 28.7421875 28.1953125 C29.0721875 25.5553125 29.4021875 22.9153125 29.7421875 20.1953125 C30.4021875 20.1953125 31.0621875 20.1953125 31.7421875 20.1953125 C31.8453125 19.0196875 31.9484375 17.8440625 32.0546875 16.6328125 C32.57133708 12.37045347 33.8930236 9.05443716 35.7421875 5.1953125 C36.4021875 5.1953125 37.0621875 5.1953125 37.7421875 5.1953125 C38.0721875 3.5453125 38.4021875 1.8953125 38.7421875 0.1953125 C41.20081151 0.14147402 43.658263 0.10172212 46.1171875 0.0703125 C47.16519531 0.04517578 47.16519531 0.04517578 48.234375 0.01953125 C50.07116236 0.00186983 51.90820713 0.09227989 53.7421875 0.1953125 C54.4021875 0.8553125 55.0621875 1.5153125 55.7421875 2.1953125 C55.45363831 7.87011315 54.18624764 12.09466524 51.7421875 17.1953125 C51.0821875 17.1953125 50.4221875 17.1953125 49.7421875 17.1953125 C49.6390625 18.1853125 49.5359375 19.1753125 49.4296875 20.1953125 C48.83410044 24.47828413 47.35623723 28.19527621 45.7421875 32.1953125 C45.0821875 32.1953125 44.4221875 32.1953125 43.7421875 32.1953125 C43.6390625 33.2471875 43.5359375 34.2990625 43.4296875 35.3828125 C42.74521382 39.1785302 41.74518285 40.99051994 39.7421875 44.1953125 C39.02052559 46.51222704 38.34159221 48.84380173 37.7421875 51.1953125 C37.0821875 51.1953125 36.4221875 51.1953125 35.7421875 51.1953125 C35.4121875 53.5053125 35.0821875 55.8153125 34.7421875 58.1953125 C28.43577169 60.2974511 22.25698378 61.36691126 15.7421875 59.1953125 C15.4121875 56.5553125 15.0821875 53.9153125 14.7421875 51.1953125 C14.0821875 51.1953125 13.4221875 51.1953125 12.7421875 51.1953125 C12.4121875 48.5553125 12.0821875 45.9153125 11.7421875 43.1953125 C11.0821875 43.1953125 10.4221875 43.1953125 9.7421875 43.1953125 C6.66456218 35.92687822 3.73698673 28.61967198 0.94140625 21.23828125 C-0.12010504 18.54473958 -1.27626818 15.93901144 -2.5078125 13.3203125 C-4.21805849 9.54525732 -5.08828881 6.34864288 -5.2578125 2.1953125 C-3.2578125 0.1953125 -3.2578125 0.1953125 0 0 Z "
    fill="#FBFCFD"
    transform="translate(542.2578125,932.8046875)"
  />
  <path
    d="M0 0 C1.79244141 0.01740234 1.79244141 0.01740234 3.62109375 0.03515625 C5.41740234 0.04869141 5.41740234 0.04869141 7.25 0.0625 C8.17683594 0.07410156 9.10367187 0.08570313 10.05859375 0.09765625 C10.38859375 0.75765625 10.71859375 1.41765625 11.05859375 2.09765625 C10.16235352 4.61962891 10.16235352 4.61962891 8.75 7.76171875 C8.25048828 8.88320313 7.75097656 10.0046875 7.23632812 11.16015625 C6.70330078 12.33578125 6.17027344 13.51140625 5.62109375 14.72265625 C4.82735352 16.49769531 4.82735352 16.49769531 4.01757812 18.30859375 C2.70490272 21.24141807 1.38263151 24.16994396 0.05859375 27.09765625 C-4.23140625 27.09765625 -8.52140625 27.09765625 -12.94140625 27.09765625 C-14.20217714 23.31534358 -13.47504854 22.38769554 -11.88671875 18.80859375 C-11.43683594 17.78507813 -10.98695313 16.7615625 -10.5234375 15.70703125 C-9.80220703 14.10601563 -9.80220703 14.10601563 -9.06640625 12.47265625 C-8.59332031 11.39757812 -8.12023437 10.3225 -7.6328125 9.21484375 C-3.60196007 0.11958699 -3.60196007 0.11958699 0 0 Z "
    fill="#FCFEFE"
    transform="translate(303.94140625,969.90234375)"
  />
  <path
    d="M0 0 C0 3.63 0 7.26 0 11 C-0.99 11.33 -1.98 11.66 -3 12 C-4.5625 10.3125 -4.5625 10.3125 -6 8 C-5.85549796 5.03770825 -5.40712432 3.51333066 -3.5625 1.1875 C-2 0 -2 0 0 0 Z "
    fill="#E6EFF8"
    transform="translate(700,937)"
  />
  <path
    d="M0 0 C1.32 0 2.64 0 4 0 C3.03644647 9.41002278 3.03644647 9.41002278 2 14 C1.34 14 0.68 14 0 14 C0 9.38 0 4.76 0 0 Z "
    fill="#F0F2EC"
    transform="translate(828,948)"
  />
  <path
    d="M0 0 C0.33 0 0.66 0 1 0 C1.09038099 5.15171623 0.84681133 9.91913204 0 15 C-0.66 15 -1.32 15 -2 15 C-2.12375 15.804375 -2.2475 16.60875 -2.375 17.4375 C-2.684375 18.7059375 -2.684375 18.7059375 -3 20 C-3.66 20.33 -4.32 20.66 -5 21 C-5 20.01 -5 19.02 -5 18 C-4.34 18 -3.68 18 -3 18 C-3.04125 16.7625 -3.0825 15.525 -3.125 14.25 C-3.13091742 10.87706975 -2.67357431 8.95336643 -1 6 C-0.61709538 4.00889599 -0.27395385 2.00899487 0 0 Z "
    fill="#E6EDFC"
    transform="translate(810,960)"
  />
  <path
    d="M0 0 C0.99 0 1.98 0 3 0 C2.67 2.31 2.34 4.62 2 7 C2.66 7.33 3.32 7.66 4 8 C2.68 8.33 1.36 8.66 0 9 C0 6.03 0 3.06 0 0 Z "
    fill="#E7E9EB"
    transform="translate(617,970)"
  />
  <path
    d="M0 0 C0.99 0.33 1.98 0.66 3 1 C3 3.31 3 5.62 3 8 C2.34 8 1.68 8 1 8 C0.67 8.66 0.34 9.32 0 10 C0 6.7 0 3.4 0 0 Z "
    fill="#EAEBEB"
    transform="translate(617,948)"
  />
</svg>